<mxfile host="app.diagrams.net" modified="2024-07-03T06:49:58.344Z" agent="Mozilla/5.0 (Windows NT 10.0; Win64; x64) AppleWebKit/537.36 (KHTML, like Gecko) Chrome/123.0.0.0 Safari/537.36 OPR/109.0.0.0" version="24.6.4" etag="TTPCIGb4WCxeXo8id2Wy" type="github">
  <diagram name="Page-1" id="s2SQSWRJTwEBL77n77N1">
    <mxGraphModel>
      <root>
        <mxCell id="0" />
        <mxCell id="1" parent="0" />
      </root>
    </mxGraphModel>
  </diagram>
</mxfile>
